<svg width="138" height="134" viewBox="0 0 138 134" fill="none" xmlns="http://www.w3.org/2000/svg">
<path fill-rule="evenodd" clip-rule="evenodd" d="M69.0003 0.666504C31.2462 0.666504 0.667016 31.2457 0.667016 68.9998C0.65512 83.3459 5.16316 97.3311 13.551 108.97C21.9388 120.608 33.7801 129.308 47.3933 133.835C50.81 134.429 52.0878 132.379 52.0878 130.582C52.0878 128.962 51.999 123.585 51.999 117.858C34.8337 121.022 30.392 113.676 29.0253 109.829C28.2532 107.861 24.9253 101.8 22.0212 100.174C19.6295 98.8957 16.2128 95.7318 21.9323 95.6498C27.317 95.561 31.1573 100.604 32.442 102.654C38.592 112.986 48.4183 110.082 52.3407 108.292C52.942 103.85 54.7323 100.864 56.7003 99.1553C41.4962 97.447 25.6087 91.5498 25.6087 65.4123C25.6087 57.9777 28.2532 51.8345 32.6128 47.0512C31.9295 45.3428 29.5378 38.3387 33.2962 28.9428C33.2962 28.9428 39.0157 27.1457 52.0878 35.9402C57.6513 34.4002 63.3986 33.6255 69.1712 33.6373C74.9795 33.6373 80.7878 34.4027 86.2545 35.9402C99.3198 27.0568 105.046 28.9428 105.046 28.9428C108.805 38.3387 106.413 45.3428 105.73 47.0512C110.082 51.8345 112.734 57.8957 112.734 65.4123C112.734 91.6387 96.7642 97.447 81.56 99.1553C84.0337 101.287 86.1725 105.387 86.1725 111.797C86.1725 120.933 86.0837 128.279 86.0837 130.589C86.0837 132.379 87.3683 134.511 90.785 133.828C104.347 129.244 116.132 120.525 124.481 108.897C132.831 97.2686 137.326 83.3155 137.334 68.9998C137.334 31.2457 106.755 0.666504 69.0003 0.666504Z" fill="#9F507C"/>
</svg>
