<svg width="124" height="96" viewBox="0 0 124 96" fill="none" xmlns="http://www.w3.org/2000/svg">
<path d="M11.5427 95.8332C8.39478 95.8332 5.7685 94.7808 3.66383 92.6762C1.55917 90.5715 0.504556 87.943 0.5 84.7905V11.2092C0.5 8.06128 1.55461 5.435 3.66383 3.33034C5.77306 1.22567 8.39705 0.171059 11.5358 0.166504H112.464C115.608 0.166504 118.232 1.22111 120.336 3.33034C122.441 5.43956 123.495 8.06584 123.5 11.2092V84.7973C123.5 87.9407 122.445 90.567 120.336 92.6762C118.227 94.7854 115.603 95.8377 112.464 95.8332H11.5427ZM116.667 13.0473L65.0613 46.8313C64.5784 47.0819 64.091 47.2937 63.599 47.4668C63.1024 47.6354 62.5694 47.7197 62 47.7197C61.4306 47.7197 60.8976 47.6354 60.401 47.4668C59.9044 47.2983 59.417 47.0865 58.9387 46.8313L7.33333 13.0405V84.7905C7.33333 86.0205 7.72739 87.0296 8.5155 87.8177C9.30361 88.6058 10.3127 88.9998 11.5427 88.9998H112.464C113.69 88.9998 114.696 88.6058 115.485 87.8177C116.273 87.0296 116.667 86.0205 116.667 84.7905V13.0473ZM62 41.1665L114.562 6.99984H9.438L62 41.1665ZM7.33333 14.4892V8.94734V9.17967V6.99984V9.18651V8.83117V14.4892Z" fill="#9F507C"/>
</svg>
